<svg width="18" height="18" viewBox="0 0 18 18" fill="none" xmlns="http://www.w3.org/2000/svg">
<circle cx="9" cy="9" r="9" fill="#FF5900"/>
<path d="M6.10958 11.51C5.88991 11.7297 5.88991 12.0858 6.10958 12.3055C6.32925 12.5252 6.6854 12.5252 6.90507 12.3055L6.10958 11.51ZM12.1929 6.78467C12.1929 6.47401 11.9411 6.22217 11.6304 6.22217H6.5679C6.25724 6.22217 6.0054 6.47401 6.0054 6.78467C6.0054 7.09533 6.25724 7.34717 6.5679 7.34717H11.0679V11.8472C11.0679 12.1578 11.3197 12.4097 11.6304 12.4097C11.9411 12.4097 12.1929 12.1578 12.1929 11.8472V6.78467ZM6.90507 12.3055L12.0281 7.18242L11.2327 6.38692L6.10958 11.51L6.90507 12.3055Z" fill="white"/>
</svg>
