<svg width="53.333252" height="49.876526" viewBox="0 0 53.3333 49.8765" fill="none" xmlns="http://www.w3.org/2000/svg" xmlns:xlink="http://www.w3.org/1999/xlink">
	<desc>
			Created with Pixso.
	</desc>
	<defs>
		<clipPath id="clip1_1738">
			<rect id="_Слой_1" rx="-0.164473" width="53.004387" height="49.547577" transform="translate(0.164473 0.164473)" fill="white" fill-opacity="0"/>
		</clipPath>
	</defs>
	<rect id="_Слой_1" rx="-0.164473" width="53.004387" height="49.547577" transform="translate(0.164473 0.164473)" fill="#FFFFFF" fill-opacity="0"/>
	<g clip-path="url(#clip1_1738)">
		<path id="Vector" d="M46.81 6.2C47.24 7.12 47.5 8.15 47.5 9.27L47.5 40.59C47.5 41.71 47.24 42.74 46.81 43.65C50.14 44.21 53.33 41.57 53.33 37.93L53.33 11.93C53.33 8.26 50.13 5.64 46.81 6.2Z" fill="#FFFFFF" fill-opacity="1.000000" fill-rule="nonzero"/>
		<g opacity="0.800000">
			<path id="Vector" d="M46.81 6.2C45.38 3.22 41.97 1.53 38.65 2.6C39.8 3.94 40.52 5.7 40.52 7.7L40.52 42.16C40.52 44.15 39.8 45.92 38.66 47.25C41.99 48.32 45.39 46.63 46.82 43.65C47.25 42.74 47.51 41.7 47.51 40.59L47.51 9.27C47.51 8.16 47.25 7.13 46.82 6.2L46.81 6.2Z" fill="#FFFFFF" fill-opacity="1.000000" fill-rule="nonzero"/>
		</g>
		<g opacity="0.400000">
			<path id="Vector" d="M15.24 38.87C12.51 37.9 10.67 35.24 10.67 32.27L10.67 18.42C10.67 15.52 12.41 12.94 15.05 11.89L38.24 2.74C38.38 2.69 38.5 2.66 38.65 2.62C36.67 0.33 33.43 -0.7 30.33 0.52L4.8 10.6C1.91 11.73 0 14.59 0 17.78L0 33.01C0 36.29 2.01 39.2 5.02 40.28L30.54 49.44C33.58 50.54 36.71 49.5 38.63 47.27C38.56 47.25 38.49 47.24 38.42 47.21L15.22 38.88L15.24 38.87Z" fill="#FFFFFF" fill-opacity="1.000000" fill-rule="nonzero"/>
		</g>
		<g opacity="0.600000">
			<path id="Vector" d="M40.52 41.49L26.66 36.51C24.41 35.69 22.88 33.49 22.88 31.03L22.88 19.54C22.88 17.14 24.32 14.99 26.5 14.12L40.52 8.55L40.52 7.71C40.52 5.71 39.8 3.96 38.65 2.62C38.5 2.66 38.38 2.69 38.24 2.74L15.03 11.91C12.4 12.95 10.66 15.54 10.66 18.44L10.66 32.28C10.66 35.25 12.5 37.9 15.23 38.88L38.43 47.21C38.5 47.23 38.57 47.25 38.65 47.27C39.8 45.93 40.51 44.17 40.51 42.18L40.52 41.53L40.52 41.49Z" fill="#FFFFFF" fill-opacity="1.000000" fill-rule="nonzero"/>
		</g>
		<path id="Vector" d="M22.88 19.53L22.88 31.02C22.88 33.49 24.39 35.69 26.66 36.5L40.52 41.49L40.52 8.55L26.5 14.12C24.32 14.98 22.88 17.14 22.88 19.54L22.88 19.53Z" fill="#FFFFFF" fill-opacity="1.000000" fill-rule="nonzero"/>
	</g>
</svg>
